<svg width="21" height="27" viewBox="0 0 21 27" fill="none" xmlns="http://www.w3.org/2000/svg">
<path d="M10.5578 23.4392C10.9479 23.4392 12.2002 22.9182 13.992 21.2584C16.8385 18.6337 20.1619 14.0211 20.1619 9.6787C20.1619 7.11175 19.144 4.64993 17.332 2.83483C15.5201 1.01972 13.0625 0 10.5 0C7.9375 0 5.47995 1.01972 3.66799 2.83483C1.85602 4.64993 0.838073 7.11175 0.838073 9.6787C0.838073 16.5011 8.77087 23.2945 10.5578 23.4392ZM10.5 3.91297C11.4107 3.91297 12.301 4.1835 13.0582 4.69033C13.8154 5.19717 14.4056 5.91756 14.7541 6.7604C15.1026 7.60323 15.1938 8.53067 15.0161 9.42542C14.8384 10.3202 14.3999 11.1421 13.7559 11.7871C13.112 12.4322 12.2915 12.8715 11.3983 13.0495C10.5051 13.2275 9.57928 13.1361 8.7379 12.787C7.89652 12.4379 7.17738 11.8467 6.67143 11.0882C6.16547 10.3296 5.89541 9.43784 5.89541 8.52555C5.89669 7.30261 6.38222 6.13013 7.24547 5.26538C8.10873 4.40063 9.27918 3.91425 10.5 3.91297ZM21 24.3463C21 25.2486 17.2961 27 10.5 27C3.7039 27 0 25.2486 0 24.3463C0 23.7432 1.73394 22.6238 5.59679 22.0449C5.66391 22.0342 5.72893 22.0131 5.78945 21.9821C7.60046 23.695 9.37294 24.795 10.4422 24.8771H10.5771C12.022 24.8771 14.1268 23.0967 14.9745 22.315C15.0805 22.2185 15.1865 22.1124 15.2924 22.0063C15.3288 22.0181 15.3657 22.0278 15.4032 22.0352C19.2661 22.6238 21 23.7432 21 24.3463Z" fill="#FF5E00"/>
</svg>
