<svg width="328" height="336" viewBox="0 0 328 336" fill="none" xmlns="http://www.w3.org/2000/svg">
<path d="M160.929 335.791C249.807 335.791 321.857 331.585 321.857 326.396C321.857 321.207 249.807 317 160.929 317C72.0502 317 0 321.207 0 326.396C0 331.585 72.0502 335.791 160.929 335.791Z" fill="#F5F5F5"/>
<path d="M173.928 27.2623C175.373 26.9579 176.806 26.637 178.228 26.2995C213.27 18.2236 253.343 13.5424 283.729 27.7852C313.518 41.7375 309.858 71.3104 292.436 98.468C262.614 144.948 149.676 189.054 119.198 141.794C109.346 126.522 126.328 99.63 114.11 81.6273C100.2 61.1263 35.8247 74.0909 48.6897 28.7978C55.8194 3.68196 74.1126 5.15935 93.767 13.31C105.047 17.9829 115.82 23.8012 127.49 27.752C141.658 32.5577 158.192 30.6321 173.928 27.2623Z" fill="#F37A20"/>
<path opacity="0.9" d="M173.928 27.2623C175.373 26.9579 176.806 26.637 178.228 26.2995C213.27 18.2236 253.343 13.5424 283.729 27.7852C313.518 41.7375 309.858 71.3104 292.436 98.468C262.614 144.948 149.676 189.054 119.198 141.794C109.346 126.522 126.328 99.63 114.11 81.6273C100.2 61.1263 35.8247 74.0909 48.6897 28.7978C55.8194 3.68196 74.1126 5.15935 93.767 13.31C105.047 17.9829 115.82 23.8012 127.49 27.752C141.658 32.5577 158.192 30.6321 173.928 27.2623Z" fill="white"/>
<path d="M184.486 66L180.175 80.3553L179.242 84.783L178.495 88.5782L134.818 120.416C131.458 123.367 125.086 122.69 122.659 123.322C121.93 123.512 120.05 124.105 120 124.824C120.443 125.825 122.314 124.824 123.545 124.824C124.777 124.824 125.518 125.55 125.761 125.825C126.005 126.1 126.204 126.326 125.318 127.327C125.037 127.644 124.545 127.411 123.545 130.331C123.44 130.639 123.377 132.645 123.989 132.834C124.073 132.86 124.544 132.717 124.875 132.834C125.026 132.887 125.199 132.857 125.373 132.834H125.761C126.231 132.954 126.64 133.218 126.979 132.645C127.773 131.299 129.407 131.03 130.636 130.831C133.738 130.331 140.044 129.904 140.044 129.904L150.497 128.428L180.175 118.096C186.21 116.55 199.55 111.181 204.627 102.072C209.704 92.9637 214.449 75.556 217 70.9174L184.486 66Z" fill="#9F2733"/>
<path d="M75.2402 162L58.5376 147.976" stroke="#F37A20" stroke-miterlimit="10"/>
<path d="M83.897 169.271L78.8086 164.989" stroke="#F37A20" stroke-miterlimit="10"/>
<path d="M133.932 198.622L189.036 129.754L115.668 68.1555L67.0597 123.931L59.8202 137.883C59.4608 138.279 59.1869 138.745 59.0158 139.251C58.8446 139.758 58.7798 140.295 58.8255 140.827C58.8711 141.36 59.0261 141.878 59.2809 142.348C59.5357 142.819 59.8848 143.231 60.3063 143.56L126.496 199.139C127.573 200.007 128.937 200.435 130.316 200.339C131.695 200.243 132.986 199.63 133.932 198.622Z" fill="#F37A20"/>
<path opacity="0.5" d="M96.1419 147.832L88.2095 160.604L91.4052 161.297L92.4911 164.255L94.6113 164.379L95.5938 166.913L98.1897 167.668L100.186 170.843L108.118 158.07L96.1419 147.832Z" fill="white"/>
<path opacity="0.1" d="M186.636 127.737L137.221 182.861L67.0286 123.931L115.668 68.1555L186.636 127.737Z" fill="black"/>
<path d="M186.636 127.737L137.221 182.861L157.678 184.371L206.328 128.595L186.636 127.737Z" fill="#F37A20"/>
<path opacity="0.3" d="M186.636 127.737L137.221 182.861L157.678 184.371L206.328 128.595L186.636 127.737Z" fill="black"/>
<path d="M95.9869 67.2866L46.5615 122.421L67.0287 123.931L115.668 68.1554L95.9869 67.2866Z" fill="#F37A20"/>
<path opacity="0.4" d="M95.9869 67.2866L46.5615 122.421L67.0287 123.931L115.668 68.1554L95.9869 67.2866Z" fill="black"/>
<path opacity="0.1" d="M171.423 144.708L186.636 127.737L115.668 68.1555L106.588 90.0395L171.423 144.708Z" fill="black"/>
<path opacity="0.2" d="M67.0286 123.931L115.668 68.1555L106.587 90.0395L72.3341 128.388L67.0286 123.931Z" fill="black"/>
<path d="M227.526 14.8382C228.432 14.085 227.701 12.7441 228.187 12.3406L230.453 10.4576L235.403 16.0861L238.315 17.2851L239.359 19.2006C240.068 19.7248 239.943 21.2205 242.159 19.9359C243.326 19.2597 244.819 13.3852 242.887 11.2603C239.715 7.77233 242.088 6.97829 240.737 6.36707C239.366 5.7468 239.366 8.34051 236.43 7.44067C235.408 7.12766 234.206 7.48435 232.471 7.94615C230.007 8.60229 228.027 8.85508 226.272 10.0354C224.516 11.2158 223.383 12.1572 223.171 12.8901C222.959 13.6229 224.55 16.197 224.986 16.3919C225.421 16.5867 226.392 15.7797 227.526 14.8382Z" fill="black"/>
<path d="M259.013 274.13H224.746C226.315 286.847 232.033 320.907 232.723 325.258L227.333 328.957H243.933H246.552C246.552 328.957 259.013 329.451 259.013 328.957C259.311 328.654 259.013 274.13 259.013 274.13Z" fill="#9F2733"/>
<path d="M232.671 27.3002C231.026 28.6281 227.239 25.5438 223.5 24.9208C223.616 25.0641 223.625 33.0558 224.186 35.3526C224.71 37.4955 225.974 41.6593 226.83 42.3106C228.226 43.3744 231.652 45.4976 237.027 46.5344C243.778 47.8367 255.861 41.5015 255.898 36.1353C255.92 32.8352 259.853 30.4644 255.898 26.7901C255.898 26.7901 240.796 24.9208 242.354 19.7181C241.792 19.8496 241.518 19.8128 240.796 19.3182C240.407 19.0517 240.029 18.7919 239.571 18.4128C238.922 17.875 238.223 17.1331 238.223 17.1331C238.242 15.9335 239.595 15.0781 238.784 14.0746C237.851 12.9189 235.511 15.2481 234.395 14.2551L232.894 12.6741L231.105 10.4594L230.463 9.66375L227.663 11.9242C227.741 14.4667 227.74 17.9134 227.74 17.9134C227.891 19.528 227.996 22.2063 229.038 23.4965C229.871 24.5286 230.553 24.984 232.646 23.294L234.035 25.0142C234.442 25.7398 233.315 26.7802 232.671 27.3002Z" fill="#9F2731"/>
<path d="M229.514 20.1939C229.536 19.8997 229.736 17.2517 230.004 15.6608L230.204 14.9526" stroke="#380A0E"/>
<path d="M204.64 21.9552C201.707 21.9552 191.103 23.0519 185.496 36.1355C179.889 49.219 183.627 69.7665 183.627 69.7665H198.181L201.631 74.5328V78.4325C201.631 78.4325 235.908 78.5011 237.417 78.5011C238.28 75.468 242.377 62.2523 242.377 62.2523H244.965L281.193 73.0848L290.034 55.3195C293.7 47.9533 294.131 38.4207 291.975 34.3043C288.956 25.4216 280.114 20.872 272.783 20.0054C266.917 19.3121 258.119 24.0495 254.453 26.5049C254.741 28.2381 255.137 31.8939 254.022 34.7376C251.218 41.8871 246.474 44.9202 238.711 45.1369C230.948 45.3535 227.71 41.1775 225.557 38.204C223.832 35.8209 223.616 26.9382 223.616 25.205C220.597 22.3885 208.306 21.9552 204.64 21.9552Z" fill="#DB6036"/>
<path d="M201.821 53.5801C201.904 55.6967 203.564 60.7492 203.564 60.7492C203.564 60.7492 197.092 62.7975 197.34 68.5327" stroke="black" stroke-width="2"/>
<path d="M243.437 59.8104L248.421 43.6118" stroke="black" stroke-width="2"/>
<path d="M236.438 78.501H201.23C201.23 79.7967 200.758 85.1094 201.445 100.313C202.132 115.517 209.043 164.932 211.905 187.68L225.001 275.361H259.677C260.024 276.949 260.224 277.869 260.224 277.869C260.224 277.869 270.227 275.377 285.803 275.377C285.803 275.377 285.412 260.383 283.311 251.079C280.874 240.288 273.3 224.579 273.3 224.579C273.3 224.579 293.226 140.533 293.902 136.442C294.578 132.351 295.771 118.375 295.771 118.375C295.771 118.375 297.047 102.288 291.98 94.1745C287.857 87.5748 281.165 81.5964 276.585 81.5244L236.438 78.501Z" fill="#FBA53E"/>
<path d="M241.752 9.3372C243.072 9.84414 245.361 9.16492 245.811 8.59364C247.257 6.76048 246.105 4.52772 245.487 3.5253C244.716 2.27228 244.356 1.97447 243.048 1.63174C241.739 1.289 240.4 1.41265 239.111 2.19369C237.822 2.97473 238.448 4.9695 238.746 6.20006C239.043 7.43062 239.234 8.37049 241.752 9.3372Z" fill="black"/>
<path d="M242.364 59.8104L237.858 74.9835L236.785 79.4714L235.926 83.3181L185.711 115.588C181.848 118.58 174.521 117.893 171.731 118.534C170.893 118.726 168.732 119.327 168.674 120.056C169.184 121.071 171.335 120.056 172.75 120.056C174.166 120.056 175.018 120.792 175.298 121.071C175.578 121.35 175.808 121.578 174.789 122.593C174.466 122.914 173.9 122.678 172.75 125.637C172.629 125.95 172.557 127.983 173.26 128.174C173.357 128.201 173.899 128.056 174.279 128.174C174.452 128.228 174.652 128.198 174.851 128.174H175.298C175.839 128.296 176.309 128.564 176.698 127.983C177.611 126.619 179.49 126.346 180.903 126.145C184.469 125.637 191.719 125.205 191.719 125.205L203.737 123.709L237.858 113.237C244.796 111.67 260.133 106.227 265.97 96.9953C271.807 87.7632 279.132 76.0521 282.065 71.3505L242.364 59.8104Z" fill="#9F2733"/>
<path d="M173.659 128.343L174.593 125.228L175.995 123.359M174.593 128.343L175.06 126.474L176.929 124.605M175.528 128.343L175.995 127.097L177.397 125.851" stroke="#380A0E" stroke-width="0.25"/>
<path d="M276.329 318.303L292.31 302.84C290.059 300.513 288.616 298.991 288.295 296.559C287.838 293.097 285.803 284.099 285.803 274.265L248.894 274.265C256.882 292.567 272.112 328.089 272.88 327.346C274.455 325.823 275.647 320.263 276.329 318.303Z" fill="#9F2731"/>
<path d="M243.509 124.615L244.474 131.704C232.194 160.273 223.519 186.259 223.519 218.681C223.519 237.547 237.207 249.21 244.683 266.031C250.913 277.869 255.274 286.591 259.636 295.936" stroke="black" stroke-width="2"/>
<path d="M29.7051 269.234H136.31V324.272C136.31 324.977 136.171 325.675 135.901 326.327C135.632 326.978 135.236 327.57 134.737 328.069C134.239 328.568 133.647 328.963 132.995 329.233C132.344 329.503 131.645 329.642 130.94 329.642H35.0752C34.37 329.642 33.6717 329.503 33.0201 329.233C32.3686 328.963 31.7766 328.568 31.2779 328.069C30.7793 327.57 30.3837 326.978 30.1139 326.327C29.844 325.675 29.7051 324.977 29.7051 324.272V269.234Z" fill="#F37A20"/>
<path d="M29.7051 269.234H105.144L95.8644 257.357C94.8435 256.054 92.3203 255 90.2204 255H22.3762C20.2846 255 19.4048 256.054 20.4257 257.357L29.7051 269.234Z" fill="#F37A20"/>
<path opacity="0.2" d="M29.7051 269.234H105.144L95.8644 257.357C94.8435 256.054 92.3203 255 90.2204 255H22.3762C20.2846 255 19.4048 256.054 20.4257 257.357L29.7051 269.234Z" fill="black"/>
<path d="M136.31 269.234H60.8799L70.1593 261.491C71.1802 260.661 73.7034 259.955 75.8033 259.955H143.639C145.739 259.955 146.611 260.644 145.59 261.491L136.31 269.234Z" fill="#F37A20"/>
<path opacity="0.2" d="M60.8799 269.234H136.31V324.272C136.31 324.977 136.171 325.675 135.901 326.327C135.632 326.978 135.236 327.57 134.737 328.069C134.239 328.568 133.647 328.963 132.995 329.233C132.344 329.503 131.645 329.642 130.94 329.642H66.25C65.5448 329.642 64.8465 329.503 64.1949 329.233C63.5434 328.963 62.9514 328.568 62.4527 328.069C61.9541 327.57 61.5585 326.978 61.2887 326.327C61.0188 325.675 60.8799 324.977 60.8799 324.272V269.234Z" fill="white"/>
<path opacity="0.5" d="M39.0674 269.234V306.983L41.6736 304.925L43.5079 306.983L45.1015 304.692L46.7366 306.983L49.0108 305.265L51.5174 306.983V269.234H39.0674Z" fill="white"/>
</svg>
