<svg width="27" height="27" viewBox="0 0 27 27" fill="none" xmlns="http://www.w3.org/2000/svg">
<circle cx="13.5" cy="13.5" r="13.5" fill="#FF5E00"/>
<path fill-rule="evenodd" clip-rule="evenodd" d="M16.6968 11.0332H19.6361C19.9736 11.0332 20.2498 11.3093 20.2498 11.6468L20.2313 11.8125L18.6727 17.5009C18.5254 18.0164 18.0529 18.3968 17.4884 18.3968H9.51112C8.94657 18.3968 8.47407 18.0164 8.33294 17.5009L6.7743 11.8125C6.75589 11.7573 6.74976 11.702 6.74976 11.6468C6.74976 11.3093 7.02589 11.0332 7.36339 11.0332H10.3027L12.9904 7.01386C13.107 6.83591 13.3034 6.75 13.4998 6.75C13.6961 6.75 13.8925 6.83591 14.0091 7.00773L16.6968 11.0332ZM15.2179 11.0332L13.4998 8.45591L11.7816 11.0332H15.2179ZM17.4884 17.1695L9.51726 17.1757L8.16726 12.2605H18.8384L17.4884 17.1695ZM12.2725 14.715C12.2725 14.04 12.8248 13.4877 13.4998 13.4877C14.1748 13.4877 14.727 14.04 14.727 14.715C14.727 15.39 14.1748 15.9423 13.4998 15.9423C12.8248 15.9423 12.2725 15.39 12.2725 14.715Z" fill="white"/>
</svg>
