<svg width="32" height="40" viewBox="0 0 32 40" fill="none" xmlns="http://www.w3.org/2000/svg">
<path d="M26.6665 8.53344V7.46688C26.6665 6.29376 25.7062 5.33344 24.5334 5.33344H5.33339C4.16027 5.33344 3.19995 6.29376 3.19995 7.46688V8.53344H26.6665Z" fill="#FF5E00"/>
<path d="M3.19995 11.7334V20.2669C3.19995 21.4397 4.16027 22.4 5.33339 22.4H16V21.3334C16 17.2169 19.35 13.8669 23.4665 13.8669H26.6665V11.7334H3.19995ZM8.53339 19.2H5.33339V17.0669H8.53339V19.2ZM13.8665 19.2H10.6665V17.0669H13.8665V19.2Z" fill="#FF5E00"/>
<path d="M23.4667 16C20.522 16 18.1335 18.3888 18.1335 21.3334C18.1335 24.2781 20.522 26.6666 23.4667 26.6666C26.4116 26.6666 28.8001 24.2781 28.8001 21.3334C28.8001 18.3888 26.4116 16 23.4667 16ZM23.0897 23.6906L20.2615 20.8614L21.3927 19.7302L23.0897 21.4272L25.5415 18.9763L26.6727 20.1075L23.0897 23.6906Z" fill="#FF5E00"/>
</svg>
